<?xml version="1.0" standalone="no"?>
<!DOCTYPE svg PUBLIC "-//W3C//DTD SVG 1.0//EN" "http://www.w3.org/TR/2001/REC-SVG-20010904/DTD/svg10.dtd">
<svg xmlns="http://www.w3.org/2000/svg" xmlns:xlink="http://www.w3.org/1999/xlink" id="body_1" width="288" height="240">

<g transform="matrix(0.8000001 0 0 0.8000001 0 0)">
	<g transform="matrix(0.9999971 0 0 1 0 0)">
	</g>
    <path transform="matrix(0.9999971 0 0 1 0 0)"  d="M59.99878 10L119.9988 10L119.9988 30.00002L59.99878 30.00002L59.99878 10z" stroke="none" fill="#3CA370" fill-rule="nonzero" />
	<g transform="matrix(0.9999971 0 0 1 0 0)">
	</g>
    <path transform="matrix(0.9999971 0 0 1 0 0)"  d="M59.99966 29.99501L119.9997 29.99501L119.9997 59.99501L59.99966 59.99501L59.99966 29.99501z" stroke="none" fill="#322947" fill-rule="nonzero" />
	<g transform="matrix(0.9999971 0 0 1 0 0)">
	</g>
    <path transform="matrix(0.9999971 0 0 1 0 0)"  d="M119.9989 29.99513L154.9989 29.99513L154.9989 59.99513L119.9989 59.99513L119.9989 29.99513z" stroke="none" fill="#322947" fill-rule="nonzero" />
	<g transform="matrix(0.9999971 0 0 1 0 0)">
	</g>
    <path transform="matrix(0.9999971 0 0 1 0 0)"  d="M119.9996 19.99503C 119.9996 14.47218 124.4768 9.99501 129.9996 9.99501L129.9996 9.99501L147.4998 9.99501C 153.0226 9.99501 157.4998 14.47218 157.4998 19.99503C 157.4998 25.51785 153.0226 29.99501 147.4998 29.99501L147.4998 29.99501L129.9996 29.99501C 124.4768 29.99501 119.9996 25.51785 119.9996 19.99503z" stroke="none" fill="#3CA370" fill-rule="nonzero" />
	<g transform="matrix(0.9999971 0 0 1 0 0)">
	</g>
    <path transform="matrix(0.9999971 0 0 1 0 0)"  d="M119.9988 10L129.9988 10L129.9988 30L119.9988 30L119.9988 10z" stroke="none" fill="#3CA370" fill-rule="nonzero" />
	<g transform="matrix(0.9999971 0 0 1 0 0)">
	</g>
    <path transform="matrix(0.9999971 0 0 1 0 0)"  d="M119.9988 20L157.4989 20L157.4989 30.00002L119.9988 30.00002L119.9988 20z" stroke="none" fill="#3CA370" fill-rule="nonzero" />
	<g transform="matrix(3.779193 0 0 3.779204 80.00724 259.9859)">
	</g>
    <path transform="matrix(3.779193 0 0 3.779204 80.00724 259.9859)"  d="M19.84341 -58.20953C 20.20879 -58.20945 20.50502 -58.50566 20.50493 -58.87105L20.50493 -58.87105L20.50493 -61.51715C 20.50502 -61.88253 20.20879 -62.17875 19.84341 -62.17866C 19.47803 -62.17875 19.18181 -61.88253 19.1819 -61.51715L19.1819 -61.51715L19.1819 -58.87105C 19.18181 -58.50566 19.47803 -58.20945 19.84341 -58.20953z" stroke="none" fill="#3CA370" fill-rule="nonzero" />
	<g transform="matrix(3.779193 0 0 3.779204 80.00724 259.9859)">
	</g>
    <path transform="matrix(3.779193 0 0 3.779204 80.00724 259.9859)"  d="M17.19735 -58.87103C 17.56273 -58.87094 17.85896 -59.16716 17.85887 -59.53255L17.85887 -59.53255L17.85887 -61.51715C 17.85896 -61.88253 17.56273 -62.17875 17.19735 -62.17866C 16.83197 -62.17875 16.53575 -61.88253 16.53584 -61.51715L16.53584 -61.51715L16.53584 -59.53255C 16.53575 -59.16716 16.83197 -58.87094 17.19735 -58.87103z" stroke="none" fill="#3CA370" fill-rule="nonzero" />
	<g transform="matrix(3.779193 0 0 3.779204 80.00724 259.9859)">
	</g>
    <path transform="matrix(3.779193 0 0 3.779204 80.00724 259.9859)"  d="M18.52038 -59.53255C 18.88576 -59.53246 19.18199 -59.82868 19.1819 -60.19406L19.1819 -60.19406L19.1819 -62.17866C 19.18199 -62.54404 18.88577 -62.84027 18.52038 -62.84018C 18.155 -62.84027 17.85878 -62.54404 17.85887 -62.17866L17.85887 -62.17866L17.85887 -60.19406C 17.85878 -59.82868 18.155 -59.53246 18.52038 -59.53255z" stroke="none" fill="#3CA370" fill-rule="nonzero" />
	<g transform="matrix(0.9999971 0 0 1 0 0)">
	</g>
    <path transform="matrix(0.9999971 0 0 1 0 0)"  d="M59.99969 29.99513L24.99969 29.99513L24.99969 59.99513L59.99969 59.99513L59.99969 29.99513z" stroke="none" fill="#322947" fill-rule="nonzero" />
	<g transform="matrix(0.9999971 0 0 1 0 0)">
	</g>
    <path transform="matrix(0.9999971 0 0 1 0 0)"  d="M59.999 19.99503C 59.999 14.47218 55.52185 9.99501 49.999 9.99501L49.999 9.99501L32.49884 9.99501C 26.97599 9.99501 22.49884 14.47218 22.49884 19.99503C 22.49884 25.51785 26.97599 29.99501 32.49884 29.99501L32.49884 29.99501L49.999 29.99501C 55.52185 29.99501 59.999 25.51785 59.999 19.99503z" stroke="none" fill="#3CA370" fill-rule="nonzero" />
	<g transform="matrix(0.9999971 0 0 1 0 0)">
	</g>
    <path transform="matrix(0.9999971 0 0 1 0 0)"  d="M59.99985 10L49.99986 10L49.99986 30L59.99985 30L59.99985 10z" stroke="none" fill="#3CA370" fill-rule="nonzero" />
	<g transform="matrix(0.9999971 0 0 1 0 0)">
	</g>
    <path transform="matrix(0.9999971 0 0 1 0 0)"  d="M59.99984 20L22.49969 20L22.49969 30.00002L59.99984 30.00002L59.99984 20z" stroke="none" fill="#3CA370" fill-rule="nonzero" />
	<g transform="matrix(-3.779193 0 0 3.779204 99.99085 259.9859)">
	</g>
    <path transform="matrix(-3.779193 0 0 3.779204 99.99085 259.9859)"  d="M19.84341 -58.20953C 20.20879 -58.20945 20.50502 -58.50566 20.50493 -58.87105L20.50493 -58.87105L20.50493 -61.51715C 20.50502 -61.88253 20.20879 -62.17875 19.84341 -62.17866C 19.47803 -62.17875 19.18181 -61.88253 19.1819 -61.51715L19.1819 -61.51715L19.1819 -58.87105C 19.18181 -58.50566 19.47803 -58.20945 19.84341 -58.20953z" stroke="none" fill="#3CA370" fill-rule="nonzero" />
	<g transform="matrix(-3.779193 0 0 3.779204 99.99085 259.9859)">
	</g>
    <path transform="matrix(-3.779193 0 0 3.779204 99.99085 259.9859)"  d="M17.19735 -58.87103C 17.56273 -58.87094 17.85896 -59.16716 17.85887 -59.53255L17.85887 -59.53255L17.85887 -61.51715C 17.85896 -61.88253 17.56273 -62.17875 17.19735 -62.17866C 16.83197 -62.17875 16.53575 -61.88253 16.53584 -61.51715L16.53584 -61.51715L16.53584 -59.53255C 16.53575 -59.16716 16.83197 -58.87094 17.19735 -58.87103z" stroke="none" fill="#3CA370" fill-rule="nonzero" />
	<g transform="matrix(-3.779193 0 0 3.779204 99.99085 259.9859)">
	</g>
    <path transform="matrix(-3.779193 0 0 3.779204 99.99085 259.9859)"  d="M18.52038 -59.53255C 18.88576 -59.53246 19.18199 -59.82868 19.1819 -60.19406L19.1819 -60.19406L19.1819 -62.17866C 19.18199 -62.54404 18.88577 -62.84027 18.52038 -62.84018C 18.155 -62.84027 17.85878 -62.54404 17.85887 -62.17866L17.85887 -62.17866L17.85887 -60.19406C 17.85878 -59.82868 18.155 -59.53246 18.52038 -59.53255z" stroke="none" fill="#3CA370" fill-rule="nonzero" />
	<g transform="matrix(0.9999971 0 0 1 0 0)">
	</g>
    <path transform="matrix(0.9999971 0 0 1 0 0)"  d="M59.99952 59.99998L119.9995 59.99998L119.9995 120L59.99952 120L59.99952 59.99998z" stroke="none" fill="#322947" fill-rule="nonzero" />
	<g transform="matrix(0.9999971 0 0 1 0 0)">
	</g>
    <path transform="matrix(0.9999971 0 0 1 0 0)"  d="M74.99924 76.66667C 74.99924 75.74619 75.74543 75 76.6659 75L76.6659 75L83.33257 75C 84.25304 75 84.99924 75.74619 84.99924 76.66667L84.99924 76.66667L84.99924 83.33333C 84.99924 84.25381 84.25304 85 83.33257 85L83.33257 85L76.6659 85C 75.74543 85 74.99924 84.25381 74.99924 83.33333L74.99924 83.33333L74.99924 76.66667z" stroke="none" fill="#323E4F" fill-rule="nonzero" />
	<g transform="matrix(0.9999971 0 0 1 0 0)">
	</g>
    <path transform="matrix(0.9999971 0 0 1 0 0)"  d="M119.9989 59.99513L154.9989 59.99513L154.9989 119.9951L119.9989 119.9951L119.9989 59.99513z" stroke="none" fill="#322947" fill-rule="nonzero" />
	<g transform="matrix(0.9999971 0 0 1 0 0)">
	</g>
    <path transform="matrix(0.9999971 0 0 1 0 0)"  d="M60.00029 59.99998L25.00027 59.99998L25.00027 120L60.00029 120L60.00029 59.99998z" stroke="none" fill="#322947" fill-rule="nonzero" />
	<g transform="matrix(0.9999971 0 0 1 0 0)">
	</g>
    <path transform="matrix(0.9999971 0 0 1 0 0)"  d="M60.00031 129.9749L0.0003128052 129.9749L0.0003128052 179.9749L60.00031 179.9749L60.00031 129.9749z" stroke="none" fill="#322947" fill-rule="nonzero" />
	<g transform="matrix(0.9999971 0 0 1 0 0)">
	</g>
    <path transform="matrix(0.9999971 0 0 1 0 0)"  d="M10.00031 129.9749L0.0003128052 129.9749L0.0003128052 149.9749L10.00031 149.9749L10.00031 129.9749z" stroke="none" fill="#3CA370" fill-rule="nonzero" />
	<g transform="matrix(0.9999971 0 0 1 0 0)">
	</g>
    <path transform="matrix(0.9999971 0 0 1 0 0)"  d="M60.00031 119.9749L25.00031 119.9749L25.00031 129.9749L60.00031 129.9749L60.00031 119.9749z" stroke="none" fill="#322947" fill-rule="nonzero" />
	<g transform="matrix(0.9999971 0 0 1 0 0)">
	</g>
    <path transform="matrix(0.9999971 0 0 1 0 0)"  d="M32.49999 139.9749C 32.49999 134.4521 28.02284 129.9749 22.5 129.9749L22.5 129.9749L10 129.9749C 4.47715 129.9749 -7.629395E-06 134.4521 -7.629395E-06 139.9749C -7.629395E-06 145.4978 4.47715 149.9749 10 149.9749L10 149.9749L22.5 149.9749C 28.02284 149.9749 32.49999 145.4978 32.49999 139.9749z" stroke="none" fill="#3CA370" fill-rule="nonzero" />
	<g transform="matrix(0.9999971 0 0 1 0 0)">
	</g>
    <path transform="matrix(0.9999971 0 0 1 0 0)"  d="M32.49999 129.9749L22.5 129.9749L22.5 139.9749L32.49999 139.9749L32.49999 129.9749z" stroke="none" fill="#3CA370" fill-rule="nonzero" />
	<g transform="matrix(-3.779515 0 0 3.779526 99.99965 280.0003)">
	</g>
    <path transform="matrix(-3.779515 0 0 3.779526 99.99965 280.0003)"  d="M18.52083 -42.33879C 18.15548 -42.33888 17.85928 -42.04268 17.85937 -41.67733L17.85937 -41.67733L17.85937 -39.03146C 17.85928 -38.66611 18.15548 -38.36991 18.52083 -38.37C 18.88618 -38.36991 19.18237 -38.66611 19.18229 -39.03146L19.18229 -39.03146L19.18229 -41.67733C 19.18237 -42.04269 18.88618 -42.33888 18.52083 -42.33879z" stroke="none" fill="#3CA370" fill-rule="nonzero" />
	<g transform="matrix(-3.779515 0 0 3.779526 99.99965 280.0003)">
	</g>
    <path transform="matrix(-3.779515 0 0 3.779526 99.99965 280.0003)"  d="M21.16666 -41.67735C 20.80131 -41.67744 20.50512 -41.38124 20.5052 -41.01589L20.5052 -41.01589L20.5052 -39.03146C 20.50511 -38.66611 20.80131 -38.36991 21.16666 -38.37C 21.53201 -38.36991 21.82821 -38.66611 21.82812 -39.03146L21.82812 -39.03146L21.82812 -41.01589C 21.82821 -41.38124 21.53201 -41.67744 21.16666 -41.67735z" stroke="none" fill="#3CA370" fill-rule="nonzero" />
	<g transform="matrix(-3.779515 0 0 3.779526 99.99965 280.0003)">
	</g>
    <path transform="matrix(-3.779515 0 0 3.779526 99.99965 280.0003)"  d="M19.84375 -41.01587C 19.4784 -41.01596 19.1822 -40.71976 19.18229 -40.35442L19.18229 -40.35442L19.18229 -38.36998C 19.1822 -38.00463 19.47839 -37.70844 19.84375 -37.70853C 20.2091 -37.70844 20.50529 -38.00463 20.5052 -38.36998L20.5052 -38.36998L20.5052 -40.35442C 20.50529 -40.71977 20.2091 -41.01596 19.84375 -41.01587z" stroke="none" fill="#3CA370" fill-rule="nonzero" />
	<g transform="matrix(0.9999971 0 0 1 0 0)">
	</g>
    <path transform="matrix(0.9999971 0 0 1 0 0)"  d="M119.9997 189.9951C 119.9997 184.4723 124.4768 179.9951 129.9997 179.9951L129.9997 179.9951L169.9997 179.9951C 175.5225 179.9951 179.9997 184.4723 179.9997 189.9951L179.9997 189.9951L179.9997 229.9951C 179.9997 235.518 175.5225 239.9951 169.9997 239.9951L169.9997 239.9951L129.9997 239.9951C 124.4768 239.9951 119.9997 235.518 119.9997 229.9951L119.9997 229.9951L119.9997 189.9951z" stroke="none" fill="#322947" fill-rule="nonzero" />
	<g transform="matrix(0.9999971 0 0 1 0 0)">
	</g>
    <path transform="matrix(0.9999971 0 0 1 0 0)"  d="M119.9997 179.9951L149.9997 179.9951L149.9997 239.9951L119.9997 239.9951L119.9997 179.9951z" stroke="none" fill="#322947" fill-rule="nonzero" />
	<g transform="matrix(0.9999971 0 0 1 0 0)">
	</g>
    <path transform="matrix(0.9999971 0 0 1 0 0)"  d="M119.9997 179.9951L179.9997 179.9951L179.9997 209.9951L119.9997 209.9951L119.9997 179.9951z" stroke="none" fill="#322947" fill-rule="nonzero" />
	<g transform="matrix(0.9999971 0 0 1 0 0)">
	</g>
    <path transform="matrix(0.9999971 0 0 1 0 0)"  d="M60.00032 189.9751C 60.00032 184.4522 55.52316 179.9751 50.00034 179.9751L50.00034 179.9751L10.00032 179.9751C 4.477493 179.9751 0.0003204346 184.4522 0.0003204346 189.9751L0.0003204346 189.9751L0.0003204346 229.9751C 0.0003204346 235.4979 4.477493 239.9751 10.00032 239.9751L10.00032 239.9751L50.00034 239.9751C 55.52316 239.9751 60.00032 235.4979 60.00032 229.9751L60.00032 229.9751L60.00032 189.9751z" stroke="none" fill="#322947" fill-rule="nonzero" />
	<g transform="matrix(0.9999971 0 0 1 0 0)">
	</g>
    <path transform="matrix(0.9999971 0 0 1 0 0)"  d="M60.00032 179.9751L30.00032 179.9751L30.00032 239.9751L60.00032 239.9751L60.00032 179.9751z" stroke="none" fill="#322947" fill-rule="nonzero" />
	<g transform="matrix(0.9999971 0 0 1 0 0)">
	</g>
    <path transform="matrix(0.9999971 0 0 1 0 0)"  d="M60.00032 179.9751L0.0003204346 179.9751L0.0003204346 209.9751L60.00032 209.9751L60.00032 179.9751z" stroke="none" fill="#322947" fill-rule="nonzero" />
	<g transform="matrix(0.9999971 0 0 1 0 0)">
	</g>
    <path transform="matrix(0.9999971 0 0 1 0 0)"  d="M119.9917 249.9951C 119.9917 244.4723 124.4689 239.9951 129.9917 239.9951L129.9917 239.9951L144.9917 239.9951C 150.5146 239.9951 154.9917 244.4723 154.9917 249.9951L154.9917 249.9951L154.9917 269.9951C 154.9917 275.518 150.5146 279.9951 144.9917 279.9951L144.9917 279.9951L129.9917 279.9951C 124.4689 279.9951 119.9917 275.518 119.9917 269.9951L119.9917 269.9951L119.9917 249.9951z" stroke="none" fill="#322947" fill-rule="nonzero" />
	<g transform="matrix(0.9999971 0 0 1 0 0)">
	</g>
    <path transform="matrix(0.9999971 0 0 1 0 0)"  d="M120 240L155 240L155 260L120 260L120 240z" stroke="none" fill="#322947" fill-rule="nonzero" />
	<g transform="matrix(0.9999971 0 0 1 0 0)">
	</g>
    <path transform="matrix(0.9999971 0 0 1 0 0)"  d="M119.9995 240L139.9995 240L139.9995 280L119.9995 280L119.9995 240z" stroke="none" fill="#322947" fill-rule="nonzero" />
	<g transform="matrix(0.9999971 0 0 1 0 0)">
	</g>
    <path transform="matrix(0.9999971 0 0 1 0 0)"  d="M59.99952 240L119.9995 240L119.9995 279.9999L59.99952 279.9999L59.99952 240z" stroke="none" fill="#322947" fill-rule="nonzero" />
	<g transform="matrix(0.9999971 0 0 1 0 0)">
	</g>
    <path transform="matrix(0.9999971 0 0 1 0 0)"  d="M60.00735 249.9951C 60.00735 244.4723 55.53019 239.9951 50.00735 239.9951L50.00735 239.9951L35.00735 239.9951C 29.4845 239.9951 25.00735 244.4723 25.00735 249.9951L25.00735 249.9951L25.00735 269.9951C 25.00735 275.518 29.4845 279.9951 35.00735 279.9951L35.00735 279.9951L50.00735 279.9951C 55.53019 279.9951 60.00735 275.518 60.00735 269.9951L60.00735 269.9951L60.00735 249.9951z" stroke="none" fill="#322947" fill-rule="nonzero" />
	<g transform="matrix(0.9999971 0 0 1 0 0)">
	</g>
    <path transform="matrix(0.9999971 0 0 1 0 0)"  d="M59.99909 240L24.99908 240L24.99908 260L59.99909 260L59.99909 240z" stroke="none" fill="#322947" fill-rule="nonzero" />
	<g transform="matrix(0.9999971 0 0 1 0 0)">
	</g>
    <path transform="matrix(0.9999971 0 0 1 0 0)"  d="M59.99952 240L39.99952 240L39.99952 280L59.99952 280L59.99952 240z" stroke="none" fill="#322947" fill-rule="nonzero" />
	<g transform="matrix(0.9999971 0 0 1 0 0)">
	</g>
    <path transform="matrix(0.9999971 0 0 1 0 0)"  d="M119.9989 129.9951L179.9989 129.9951L179.9989 179.9951L119.9989 179.9951L119.9989 129.9951z" stroke="none" fill="#322947" fill-rule="nonzero" />
	<g transform="matrix(0.9999971 0 0 1 0 0)">
	</g>
    <path transform="matrix(0.9999971 0 0 1 0 0)"  d="M169.9989 129.9951L179.9989 129.9951L179.9989 149.9951L169.9989 149.9951L169.9989 129.9951z" stroke="none" fill="#3CA370" fill-rule="nonzero" />
	<g transform="matrix(0.9999971 0 0 1 0 0)">
	</g>
    <path transform="matrix(0.9999971 0 0 1 0 0)"  d="M119.9989 119.9951L154.9989 119.9951L154.9989 129.9951L119.9989 129.9951L119.9989 119.9951z" stroke="none" fill="#322947" fill-rule="nonzero" />
	<g transform="matrix(0.9999971 0 0 1 0 0)">
	</g>
    <path transform="matrix(0.9999971 0 0 1 0 0)"  d="M147.4992 139.9952C 147.4992 134.4723 151.9764 129.9951 157.4992 129.9951L157.4992 129.9951L169.9992 129.9951C 175.5221 129.9951 179.9992 134.4723 179.9992 139.9952C 179.9992 145.518 175.5221 149.9951 169.9992 149.9951L169.9992 149.9951L157.4992 149.9951C 151.9764 149.9951 147.4992 145.518 147.4992 139.9952z" stroke="none" fill="#3CA370" fill-rule="nonzero" />
	<g transform="matrix(0.9999971 0 0 1 0 0)">
	</g>
    <path transform="matrix(0.9999971 0 0 1 0 0)"  d="M147.4992 129.9951L157.4992 129.9951L157.4992 139.9952L147.4992 139.9952L147.4992 129.9951z" stroke="none" fill="#3CA370" fill-rule="nonzero" />
	<g transform="matrix(3.779515 0 0 3.779526 79.99905 280.0206)">
	</g>
    <path transform="matrix(3.779515 0 0 3.779526 79.99905 280.0206)"  d="M18.52083 -42.33879C 18.15548 -42.33888 17.85928 -42.04268 17.85937 -41.67733L17.85937 -41.67733L17.85937 -39.03146C 17.85928 -38.66611 18.15548 -38.36991 18.52083 -38.37C 18.88618 -38.36991 19.18237 -38.66611 19.18229 -39.03146L19.18229 -39.03146L19.18229 -41.67733C 19.18237 -42.04269 18.88618 -42.33888 18.52083 -42.33879z" stroke="none" fill="#3CA370" fill-rule="nonzero" />
	<g transform="matrix(3.779515 0 0 3.779526 79.99905 280.0206)">
	</g>
    <path transform="matrix(3.779515 0 0 3.779526 79.99905 280.0206)"  d="M21.16666 -41.67735C 20.80131 -41.67744 20.50512 -41.38124 20.5052 -41.01589L20.5052 -41.01589L20.5052 -39.03146C 20.50511 -38.66611 20.80131 -38.36991 21.16666 -38.37C 21.53201 -38.36991 21.82821 -38.66611 21.82812 -39.03146L21.82812 -39.03146L21.82812 -41.01589C 21.82821 -41.38124 21.53201 -41.67744 21.16666 -41.67735z" stroke="none" fill="#3CA370" fill-rule="nonzero" />
	<g transform="matrix(3.779515 0 0 3.779526 79.99905 280.0206)">
	</g>
    <path transform="matrix(3.779515 0 0 3.779526 79.99905 280.0206)"  d="M19.84375 -41.01587C 19.4784 -41.01596 19.1822 -40.71976 19.18229 -40.35442L19.18229 -40.35442L19.18229 -38.36998C 19.1822 -38.00463 19.47839 -37.70844 19.84375 -37.70853C 20.2091 -37.70844 20.50529 -38.00463 20.5052 -38.36998L20.5052 -38.36998L20.5052 -40.35442C 20.50529 -40.71977 20.2091 -41.01596 19.84375 -41.01587z" stroke="none" fill="#3CA370" fill-rule="nonzero" />
	<g transform="matrix(0.9999971 0 0 1 0 0)">
	</g>
    <path transform="matrix(0.9999971 0 0 1 0 0)"  d="M185.001 12.5C 185.001 11.11929 186.1203 10 187.501 10C 188.8817 10 190.001 11.11929 190.001 12.5L190.001 12.5L190.001 57.5C 190.001 58.88071 188.8817 60 187.501 60C 186.1203 60 185.001 58.88071 185.001 57.5L185.001 57.5L185.001 12.5z" stroke="none" fill="#3CA370" fill-rule="nonzero" />
	<g transform="matrix(0.9999971 0 0 1 0 0)">
	</g>
    <path transform="matrix(0.9999971 0 0 1 0 0)"  d="M180.001 37.5C 180.001 36.11929 181.1203 35 182.501 35C 183.8817 35 185.001 36.11929 185.001 37.5L185.001 37.5L185.001 57.5C 185.001 58.88071 183.8817 60 182.501 60C 181.1203 60 180.001 58.88071 180.001 57.5L180.001 57.5L180.001 37.5z" stroke="none" fill="#3CA370" fill-rule="nonzero" />
	<g transform="matrix(0.9999971 0 0 1 0 0)">
	</g>
    <path transform="matrix(0.9999971 0 0 1 0 0)"  d="M195.001 22.5C 195.001 21.11929 196.1203 20 197.501 20C 198.8817 20 200.001 21.11929 200.001 22.5L200.001 22.5L200.001 57.5C 200.001 58.88071 198.8817 60 197.501 60C 196.1203 60 195.001 58.88071 195.001 57.5L195.001 57.5L195.001 22.5z" stroke="none" fill="#3CA370" fill-rule="nonzero" />
	<g transform="matrix(0.9999971 0 0 1 0 0)">
	</g>
    <path transform="matrix(0.9999971 0 0 1 0 0)"  d="M180.001 55L205.001 55L205.001 60L180.001 60L180.001 55z" stroke="none" fill="#3CA370" fill-rule="nonzero" />
	<g transform="matrix(0.9999971 0 0 1 0 0)">
	</g>
    <path transform="matrix(0.9999971 0 0 1 0 0)"  d="M195.001 29.16667C 195.001 27.78596 193.8817 26.66667 192.501 26.66667C 191.1203 26.66667 190.001 27.78596 190.001 29.16667L190.001 29.16667L190.001 57.5C 190.001 58.88071 191.1203 60 192.501 60C 193.8817 60 195.001 58.88071 195.001 57.5L195.001 57.5L195.001 29.16667z" stroke="none" fill="#3CA370" fill-rule="nonzero" />
	<g transform="matrix(0.9999971 0 0 1 0 0)">
	</g>
    <path transform="matrix(0.9999971 0 0 1 0 0)"  d="M200.001 47.5C 200.001 46.11929 201.1203 45 202.501 45C 203.8817 45 205.001 46.11929 205.001 47.5L205.001 47.5L205.001 57.5C 205.001 58.88071 203.8817 60 202.501 60C 201.1203 60 200.001 58.88071 200.001 57.5L200.001 57.5L200.001 47.5z" stroke="none" fill="#3CA370" fill-rule="nonzero" />
	<g transform="matrix(0.9999971 0 0 1 0 0)">
	</g>
    <path transform="matrix(0.9999971 0 0 1 0 0)"  d="M240.001 10C 240.001 4.47715 244.4782 0 250.001 0L250.001 0L290.001 0C 295.5239 0 300.001 4.47715 300.001 10L300.001 10L300.001 50C 300.001 55.52285 295.5239 60 290.001 60L290.001 60L250.001 60C 244.4782 60 240.001 55.52285 240.001 50L240.001 50L240.001 10z" stroke="none" fill="#3CA370" fill-rule="nonzero" />
	<g transform="matrix(0.9999971 0 0 1 0 0)">
	</g>
    <path transform="matrix(0.9999971 0 0 1 0 0)"  d="M280.001 20L300.001 20L300.001 120L280.001 120L280.001 20z" stroke="none" fill="#322947" fill-rule="nonzero" />
	<g transform="matrix(0.9999971 0 0 1 624.9991 120)">
	</g>
    <path transform="matrix(0.9999971 0 0 1 624.9991 120)"  d="M-325 -53.33332L-318.3333 -53.33332C -312.7933 -53.33332 -308.3333 -57.79332 -308.3333 -63.33333L-308.3333 -63.33333L-308.3333 -110" stroke="#322947" stroke-width="6.66666" fill="none" />
	<g transform="matrix(0.9999971 0 0 1 0 0)">
	</g>
    <path transform="matrix(0.9999971 0 0 1 0 0)"  d="M260.001 55C 260.001 52.23858 262.2396 50 265.001 50L265.001 50L285.001 50C 287.7625 50 290.001 52.23858 290.001 55L290.001 55L290.001 75C 290.001 77.76143 287.7625 80 285.001 80L285.001 80L265.001 80C 262.2396 80 260.001 77.76143 260.001 75L260.001 75L260.001 55z" stroke="none" fill="#3CA370" fill-rule="nonzero" />
	<g transform="matrix(0.9999971 0 0 1 0 0)">
	</g>
    <path transform="matrix(0.9999971 0 0 1 0 0)"  d="M290.001 16.66666C 290.001 12.98477 292.9858 10 296.6677 10L296.6677 10L323.3344 10C 327.0163 10 330.001 12.98477 330.001 16.66666L330.001 16.66666L330.001 43.33334C 330.001 47.01523 327.0163 50 323.3344 50L323.3344 50L296.6677 50C 292.9858 50 290.001 47.01523 290.001 43.33334L290.001 43.33334L290.001 16.66666z" stroke="none" fill="#3CA370" fill-rule="nonzero" />
	<g transform="matrix(0.9999971 0 0 1 624.9991 120)">
	</g>
    <path transform="matrix(0.9999971 0 0 1 624.9991 120)"  d="M-345 -83.33332L-351.6667 -83.33332C -357.2067 -83.33332 -361.6667 -87.79332 -361.6667 -93.33333L-361.6667 -93.33333L-361.6667 -110" stroke="#322947" stroke-width="6.66666" fill="none" />
	<g transform="matrix(0.9999971 0 0 1 0 0)">
	</g>
    <path transform="matrix(0.9999971 0 0 1 0 0)"  d="M280.001 115L300.001 115L300.001 120L280.001 120L280.001 115z" stroke="none" fill="#3CA370" fill-rule="nonzero" />
	<g transform="matrix(0.9999971 0 0 1 0 0)">
	</g>
    <path transform="matrix(0.9999971 0 0 1 0 0)"  d="M280.001 107.5C 280.001 106.1193 281.1203 105 282.501 105C 283.8817 105 285.001 106.1193 285.001 107.5L285.001 107.5L285.001 117.5C 285.001 118.8807 283.8817 120 282.501 120C 281.1203 120 280.001 118.8807 280.001 117.5L280.001 117.5L280.001 107.5z" stroke="none" fill="#3CA370" fill-rule="nonzero" />
	<g transform="matrix(0.9999971 0 0 1 0 0)">
	</g>
    <path transform="matrix(0.9999971 0 0 1 0 0)"  d="M295.001 114.5C 295.001 113.1193 293.8817 112 292.501 112C 291.1203 112 290.001 113.1193 290.001 114.5L290.001 114.5L290.001 117.5C 290.001 118.8807 291.1203 120 292.501 120C 293.8817 120 295.001 118.8807 295.001 117.5L295.001 117.5L295.001 114.5z" stroke="none" fill="#3CA370" fill-rule="nonzero" />
	<g transform="matrix(0.9999971 0 0 1 0 0)">
	</g>
    <path transform="matrix(0.9999971 0 0 1 0 0)"  d="M300.001 110.5C 300.001 109.1193 298.8817 108 297.501 108C 296.1203 108 295.001 109.1193 295.001 110.5L295.001 110.5L295.001 117.5C 295.001 118.8807 296.1203 120 297.501 120C 298.8817 120 300.001 118.8807 300.001 117.5L300.001 117.5L300.001 110.5z" stroke="none" fill="#3CA370" fill-rule="nonzero" />
	<g transform="matrix(0.9999971 0 0 1 0 0)">
	</g>
    <path transform="matrix(0.9999971 0 0 1 0 0)"  d="M285.001 113.5C 285.001 112.1193 286.1203 111 287.501 111C 288.8817 111 290.001 112.1193 290.001 113.5L290.001 113.5L290.001 117.5C 290.001 118.8807 288.8817 120 287.501 120C 286.1203 120 285.001 118.8807 285.001 117.5L285.001 117.5L285.001 113.5z" stroke="none" fill="#3CA370" fill-rule="nonzero" />
	<g transform="matrix(0.9999971 0 0 1 0 0)">
	</g>
    <path transform="matrix(0.9999971 0 0 1 0 0)"  d="M60.00024 120L120.0002 120L120.0002 180L60.00024 180L60.00024 120z" stroke="none" fill="#322947" fill-rule="nonzero" />
	<g transform="matrix(0.9999971 0 0 1 0 0)">
	</g>
    <path transform="matrix(0.9999971 0 0 1 0 0)"  d="M85.00024 146.6667C 85.00024 145.7462 85.74643 145 86.6669 145L86.6669 145L93.33357 145C 94.25404 145 95.00024 145.7462 95.00024 146.6667L95.00024 146.6667L95.00024 153.3333C 95.00024 154.2538 94.25404 155 93.33357 155L93.33357 155L86.6669 155C 85.74643 155 85.00024 154.2538 85.00024 153.3333L85.00024 153.3333L85.00024 146.6667z" stroke="none" fill="#323E4F" fill-rule="nonzero" />
	<g transform="matrix(0.9999971 0 0 1 0 0)">
	</g>
    <path transform="matrix(0.9999971 0 0 1 0 0)"  d="M120.0003 240L60.00029 240L60.00028 180L120.0003 180L120.0003 240z" stroke="none" fill="#322947" fill-rule="nonzero" />
	<g transform="matrix(0.9999971 0 0 1 0 0)">
	</g>
    <path transform="matrix(0.9999971 0 0 1 0 0)"  d="M105.0006 223.3333C 105.0006 224.2538 104.2544 225 103.3339 225L103.3339 225L96.66722 225C 95.74675 225 95.00056 224.2538 95.00056 223.3333L95.00056 223.3333L95.00056 216.6667C 95.00056 215.7462 95.74675 215 96.66722 215L96.66722 215L103.3339 215C 104.2544 215 105.0006 215.7462 105.0006 216.6667L105.0006 216.6667L105.0006 223.3333z" stroke="none" fill="#323E4F" fill-rule="nonzero" />
	<g transform="matrix(0.9999971 0 0 1 0 0)">
	</g>
    <path transform="matrix(0.9999971 0 0 1 0 0)"  d="M219.9998 107.5C 219.9998 106.1193 221.119 105 222.4998 105C 223.8805 105 224.9997 106.1193 224.9997 107.5L224.9997 107.5L224.9997 117.5C 224.9997 118.8807 223.8805 120 222.4998 120C 221.119 120 219.9998 118.8807 219.9998 117.5L219.9998 117.5L219.9998 107.5z" stroke="none" fill="#3CA370" fill-rule="nonzero" />
	<g transform="matrix(0.9999971 0 0 1 0 0)">
	</g>
    <path transform="matrix(0.9999971 0 0 1 0 0)"  d="M210.0022 110.4999C 210.0022 109.1192 208.8829 107.9999 207.5022 107.9999C 206.1215 107.9999 205.0022 109.1192 205.0022 110.4999L205.0022 110.4999L205.0022 117.4999C 205.0022 118.8806 206.1215 119.9999 207.5022 119.9999C 208.8829 119.9999 210.0022 118.8806 210.0022 117.4999L210.0022 117.4999L210.0022 110.4999z" stroke="none" fill="#3CA370" fill-rule="nonzero" />
	<g transform="matrix(0 -2 -1.999977 0 42.88795 1068.999)">
	</g>
    <path transform="matrix(0 -2 -1.999977 0 42.88795 1068.999)"  d="M487.4997 -78.63623L488.7497 -76.47117L489.9997 -74.30611L487.4997 -74.30611L484.9997 -74.30611L486.2497 -76.47117L487.4997 -78.63623z" stroke="none" fill="#B0305C" fill-rule="nonzero" />
	<g transform="matrix(3.779514 0 0 3.779525 -169.9993 329.445)">
	</g>
    <path transform="matrix(3.779514 0 0 3.779525 -169.9993 329.445)"  d="M101.0267 -57.13553L102.7907 -57.13553C 104.2565 -57.13553 105.4366 -58.31557 105.4366 -59.78136L105.4366 -59.78136L105.4366 -61.76569" stroke="#B0305C" stroke-width="0.793751" fill="none" />
	<g transform="matrix(0 -2 -1.999977 0 79.88813 1058.999)">
	</g>
    <path transform="matrix(0 -2 -1.999977 0 79.88813 1058.999)"  d="M487.4997 -78.63623L488.7497 -76.47117L489.9997 -74.30611L487.4997 -74.30611L484.9997 -74.30611L486.2497 -76.47117L487.4997 -78.63623z" stroke="none" fill="#B0305C" fill-rule="nonzero" />
	<g transform="matrix(0 -2 1.999977 0 377.1099 1058.999)">
	</g>
    <path transform="matrix(0 -2 1.999977 0 377.1099 1058.999)"  d="M487.4997 -78.63623L488.7497 -76.47117L489.9997 -74.30611L487.4997 -74.30611L484.9997 -74.30611L486.2497 -76.47117L487.4997 -78.63623z" stroke="none" fill="#B0305C" fill-rule="nonzero" />
	<g transform="matrix(0.9999886 0 0 1 -298.4876 169.1028)">
	</g>
    <path transform="matrix(0.9999886 0 0 1 -298.4876 169.1028)"  d="M505.208 -98.15926L507.708 -93.82913L510.208 -89.499L505.208 -89.499L500.208 -89.499L502.708 -93.82912L505.208 -98.15926z" stroke="none" fill="#B0305C" fill-rule="nonzero" />
	<g transform="matrix(0 -2 1.999977 0 340.1097 1068.999)">
	</g>
    <path transform="matrix(0 -2 1.999977 0 340.1097 1068.999)"  d="M487.4997 -78.63623L488.7497 -76.47117L489.9997 -74.30611L487.4997 -74.30611L484.9997 -74.30611L486.2497 -76.47117L487.4997 -78.63623z" stroke="none" fill="#B0305C" fill-rule="nonzero" />
	<g transform="matrix(3.779514 0 0 3.779525 -169.9993 329.445)">
	</g>
    <path transform="matrix(3.779514 0 0 3.779525 -169.9993 329.445)"  d="M95.64682 -62.29486L95.64682 -63.45797C 95.64682 -64.92376 96.82687 -66.10386 98.29266 -66.10386L98.29266 -66.10386L98.34966 -66.10386" stroke="#3CA370" stroke-width="0.793751" fill="none" />
	<g transform="matrix(3.779514 0 0 3.779525 -169.9993 329.445)">
	</g>
    <path transform="matrix(3.779514 0 0 3.779525 -169.9993 329.445)"  d="M101.0269 -70.89382L102.7907 -70.89382C 104.2565 -70.89382 105.4366 -69.71378 105.4366 -68.24799L105.4366 -68.24799L105.4366 -61.7657" stroke="#3CA370" stroke-width="0.793751" fill="none" />
	<g transform="matrix(3.779514 0 0 3.779525 -169.9993 329.445)">
	</g>
    <path transform="matrix(3.779514 0 0 3.779525 -169.9993 329.445)"  d="M98.34967 -66.10378L100.1135 -66.10405C 101.5793 -66.10427 102.7594 -64.92376 102.7594 -63.45797L102.7594 -63.45797L102.7594 -62.26769" stroke="#B0305C" stroke-width="0.793751" fill="none" />
	<g transform="matrix(3.779514 0 0 3.779525 -169.9993 329.445)">
	</g>
    <path transform="matrix(3.779514 0 0 3.779525 -169.9993 329.445)"  d="M101.4238 -71.2907L101.4238 -69.52684C 101.4238 -68.06104 102.6038 -66.881 104.0696 -66.881L104.0696 -66.881L104.1266 -66.881" stroke="#3CA370" stroke-width="0.793751" fill="none" />
	<g transform="matrix(-0.9999887 0 0 1 -299.9949 166.6205)">
	</g>
    <path transform="matrix(-0.9999887 0 0 1 -299.9949 166.6205)"  d="M-511.0037 -84.52445L-509.7537 -82.35939L-508.5037 -80.19433L-511.0037 -80.19433L-513.5037 -80.19433L-512.2537 -82.35939L-511.0037 -84.52445z" stroke="none" fill="#B0305C" fill-rule="nonzero" />
	<g transform="matrix(3.779514 0 0 3.779525 -169.9993 329.445)">
	</g>
    <path transform="matrix(3.779514 0 0 3.779525 -169.9993 329.445)"  d="M103.1562 -62.5322L101.3924 -62.5322C 99.92658 -62.5322 98.74654 -63.71225 98.74654 -65.17804L98.74654 -65.17804L98.74654 -65.23505" stroke="#B0305C" stroke-width="0.793751" fill="none" />
	<g transform="matrix(-0.9999887 0 0 -1 -299.9949 166.6205)">
	</g>
    <path transform="matrix(-0.9999887 0 0 -1 -299.9949 166.6205)"  d="M-511.0037 75.8642L-509.7537 78.02927L-508.5037 80.19433L-511.0037 80.19433L-513.5037 80.19433L-512.2537 78.02927L-511.0037 75.8642z" stroke="none" fill="#B0305C" fill-rule="nonzero" />
	<g transform="matrix(-0.9999887 0 0 1 -299.9949 169.1037)">
	</g>
    <path transform="matrix(-0.9999887 0 0 1 -299.9949 169.1037)"  d="M-519.7308 -104.8772L-518.4808 -102.7122L-517.2308 -100.5471L-519.7308 -100.5471L-522.2308 -100.5471L-520.9808 -102.7122L-519.7308 -104.8772z" stroke="none" fill="#B0305C" fill-rule="nonzero" />
	<g transform="matrix(-0.9999887 0 0 -1 -299.9949 169.1037)">
	</g>
    <path transform="matrix(-0.9999887 0 0 -1 -299.9949 169.1037)"  d="M-519.7308 96.21697L-518.4808 98.38203L-517.2308 100.5471L-519.7308 100.5471L-522.2308 100.5471L-520.9808 98.38203L-519.7308 96.21697z" stroke="none" fill="#B0305C" fill-rule="nonzero" />
	<g transform="matrix(0.9999971 0 0 1 0 0)">
	</g>
    <path transform="matrix(0.9999971 0 0 1 0 0)"  d="M230.0004 102.5001C 230.0004 101.1194 231.1197 100.0001 232.5004 100.0001C 233.8811 100.0001 235.0004 101.1194 235.0004 102.5001L235.0004 102.5001L235.0004 117.5001C 235.0004 118.8808 233.8811 120.0001 232.5004 120.0001C 231.1197 120.0001 230.0004 118.8808 230.0004 117.5001L230.0004 117.5001L230.0004 102.5001z" stroke="none" fill="#3CA370" fill-rule="nonzero" />
	<g transform="matrix(0.9999971 0 0 1 0 0)">
	</g>
    <path transform="matrix(0.9999971 0 0 1 0 0)"  d="M230.0004 107.5001C 230.0004 106.1194 228.8811 105.0001 227.5004 105.0001C 226.1197 105.0001 225.0004 106.1194 225.0004 107.5001L225.0004 107.5001L225.0004 117.5001C 225.0004 118.8808 226.1197 120.0001 227.5004 120.0001C 228.8811 120.0001 230.0004 118.8808 230.0004 117.5001L230.0004 117.5001L230.0004 107.5001z" stroke="none" fill="#3CA370" fill-rule="nonzero" />
	<g transform="matrix(0.9999971 0 0 1 0 0)">
	</g>
    <path transform="matrix(0.9999971 0 0 1 0 0)"  d="M219.9998 110.5C 219.9998 109.1193 218.8805 108 217.4997 108C 216.1191 108 214.9998 109.1193 214.9998 110.5L214.9998 110.5L214.9998 117.5C 214.9998 118.8807 216.1191 120 217.4997 120C 218.8805 120 219.9998 118.8807 219.9998 117.5L219.9998 117.5L219.9998 110.5z" stroke="none" fill="#3CA370" fill-rule="nonzero" />
	<g transform="matrix(0.9999971 0 0 1 0 0)">
	</g>
    <path transform="matrix(0.9999971 0 0 1 0 0)"  d="M190.001 110.5C 190.001 109.1193 191.1203 108 192.501 108C 193.8817 108 195.001 109.1193 195.001 110.5L195.001 110.5L195.001 117.5C 195.001 118.8807 193.8817 120 192.501 120C 191.1203 120 190.001 118.8807 190.001 117.5L190.001 117.5L190.001 110.5z" stroke="none" fill="#3CA370" fill-rule="nonzero" />
	<g transform="matrix(0.9999971 0 0 1 0 0)">
	</g>
    <path transform="matrix(0.9999971 0 0 1 0 0)"  d="M200.0016 107.4999C 200.0016 106.1192 198.8823 104.9999 197.5016 104.9999C 196.1209 104.9999 195.0016 106.1192 195.0016 107.4999L195.0016 107.4999L195.0016 117.4999C 195.0016 118.8806 196.1209 119.9999 197.5016 119.9999C 198.8823 119.9999 200.0016 118.8806 200.0016 117.4999L200.0016 117.4999L200.0016 107.4999z" stroke="none" fill="#3CA370" fill-rule="nonzero" />
	<g transform="matrix(0.9999971 0 0 1 0 0)">
	</g>
    <path transform="matrix(0.9999971 0 0 1 0 0)"  d="M190.001 107.5C 190.001 106.1193 188.8817 105 187.501 105C 186.1203 105 185.001 106.1193 185.001 107.5L185.001 107.5L185.001 117.5C 185.001 118.8807 186.1203 120 187.501 120C 188.8817 120 190.001 118.8807 190.001 117.5L190.001 117.5L190.001 107.5z" stroke="none" fill="#3CA370" fill-rule="nonzero" />
	<g transform="matrix(3.779514 0 0 3.779525 -169.9993 329.445)">
	</g>
    <path transform="matrix(3.779514 0 0 3.779525 -169.9993 329.445)"  d="M101.0267 -57.13553L98.29266 -57.13562C 96.82687 -57.13566 95.64682 -58.31566 95.64682 -59.78145L95.64682 -59.78145L95.64682 -62.29486" stroke="#B0305C" stroke-width="0.793751" fill="none" />
	<g transform="matrix(0.9999971 0 0 1 0 0)">
	</g>
    <path transform="matrix(0.9999971 0 0 1 0 0)"  d="M200.0016 102.5001C 200.0016 101.1194 201.1209 100.0001 202.5016 100.0001C 203.8823 100.0001 205.0016 101.1194 205.0016 102.5001L205.0016 102.5001L205.0016 117.5001C 205.0016 118.8809 203.8823 120.0001 202.5016 120.0001C 201.1209 120.0001 200.0016 118.8809 200.0016 117.5001L200.0016 117.5001L200.0016 102.5001z" stroke="none" fill="#3CA370" fill-rule="nonzero" />
	<g transform="matrix(0.9999971 0 0 1 0 0)">
	</g>
    <path transform="matrix(0.9999971 0 0 1 0 0)"  d="M180.001 102.5C 180.001 101.1193 181.1203 100 182.501 100C 183.8817 100 185.001 101.1193 185.001 102.5L185.001 102.5L185.001 117.5C 185.001 118.8807 183.8817 120 182.501 120C 181.1203 120 180.001 118.8807 180.001 117.5L180.001 117.5L180.001 102.5z" stroke="none" fill="#3CA370" fill-rule="nonzero" />
	<g transform="matrix(0.9999971 0 0 1 0 0)">
	</g>
    <path transform="matrix(0.9999971 0 0 1 0 0)"  d="M240.001 104.5C 240.001 103.1193 238.8817 102 237.501 102C 236.1203 102 235.001 103.1193 235.001 104.5L235.001 104.5L235.001 117.5C 235.001 118.8807 236.1203 120 237.501 120C 238.8817 120 240.001 118.8807 240.001 117.5L240.001 117.5L240.001 104.5z" stroke="none" fill="#3CA370" fill-rule="nonzero" />
	<g transform="matrix(0.9999971 0 0 1 0 0)">
	</g>
    <path transform="matrix(0.9999971 0 0 1 0 0)"  d="M210.0022 102.5C 210.0022 101.1193 211.1215 100 212.5022 100C 213.8829 100 215.0022 101.1193 215.0022 102.5L215.0022 102.5L215.0022 117.5C 215.0022 118.8807 213.8829 120 212.5022 120C 211.1215 120 210.0022 118.8807 210.0022 117.5L210.0022 117.5L210.0022 102.5z" stroke="none" fill="#3CA370" fill-rule="nonzero" />
	<g transform="matrix(0.9999971 0 0 1 0 0)">
	</g>
    <path transform="matrix(0.9999971 0 0 1 0 0)"  d="M180.001 115L240.001 115L240.001 120L180.001 120L180.001 115z" stroke="none" fill="#3CA370" fill-rule="nonzero" />
	<g transform="matrix(0.9999971 0 0 1 0 0)">
	</g>
    <path transform="matrix(0.9999971 0 0 1 0 0)"  d="M245.001 132.5C 245.001 131.1193 246.1203 130 247.501 130C 248.8817 130 250.001 131.1193 250.001 132.5L250.001 132.5L250.001 177.5C 250.001 178.8807 248.8817 180 247.501 180C 246.1203 180 245.001 178.8807 245.001 177.5L245.001 177.5L245.001 132.5z" stroke="none" fill="#3CA370" fill-rule="nonzero" />
	<g transform="matrix(0.9999971 0 0 1 0 0)">
	</g>
    <path transform="matrix(0.9999971 0 0 1 0 0)"  d="M240.001 157.5C 240.001 156.1193 241.1203 155 242.501 155C 243.8817 155 245.001 156.1193 245.001 157.5L245.001 157.5L245.001 177.5C 245.001 178.8807 243.8817 180 242.501 180C 241.1203 180 240.001 178.8807 240.001 177.5L240.001 177.5L240.001 157.5z" stroke="none" fill="#3CA370" fill-rule="nonzero" />
	<g transform="matrix(0.9999971 0 0 1 0 0)">
	</g>
    <path transform="matrix(0.9999971 0 0 1 0 0)"  d="M255.001 142.5C 255.001 141.1193 256.1203 140 257.501 140C 258.8817 140 260.001 141.1193 260.001 142.5L260.001 142.5L260.001 177.5C 260.001 178.8807 258.8817 180 257.501 180C 256.1203 180 255.001 178.8807 255.001 177.5L255.001 177.5L255.001 142.5z" stroke="none" fill="#3CA370" fill-rule="nonzero" />
	<g transform="matrix(0.9999971 0 0 1 0 0)">
	</g>
    <path transform="matrix(0.9999971 0 0 1 0 0)"  d="M240.001 175L265.001 175L265.001 180L240.001 180L240.001 175z" stroke="none" fill="#3CA370" fill-rule="nonzero" />
	<g transform="matrix(0.9999971 0 0 1 0 0)">
	</g>
    <path transform="matrix(0.9999971 0 0 1 0 0)"  d="M255.001 149.1667C 255.001 147.7859 253.8817 146.6667 252.501 146.6667C 251.1203 146.6667 250.001 147.7859 250.001 149.1667L250.001 149.1667L250.001 177.5C 250.001 178.8807 251.1203 180 252.501 180C 253.8817 180 255.001 178.8807 255.001 177.5L255.001 177.5L255.001 149.1667z" stroke="none" fill="#3CA370" fill-rule="nonzero" />
	<g transform="matrix(0.9999971 0 0 1 0 0)">
	</g>
    <path transform="matrix(0.9999971 0 0 1 0 0)"  d="M260.001 167.5C 260.001 166.1193 261.1203 165 262.501 165C 263.8817 165 265.001 166.1193 265.001 167.5L265.001 167.5L265.001 177.5C 265.001 178.8807 263.8817 180 262.501 180C 261.1203 180 260.001 178.8807 260.001 177.5L260.001 177.5L260.001 167.5z" stroke="none" fill="#3CA370" fill-rule="nonzero" />
	<g transform="matrix(0.9999971 0 0 1 0 0)">
	</g>
    <path transform="matrix(0.9999971 0 0 1 0 0)"  d="M255.001 126.6667C 255.001 125.7462 255.7473 125 256.6677 125L256.6677 125L283.3344 125C 284.2548 125 285.001 125.7462 285.001 126.6667L285.001 126.6667L285.001 133.3333C 285.001 134.2538 284.2548 135 283.3344 135L283.3344 135L256.6677 135C 255.7473 135 255.001 134.2538 255.001 133.3333L255.001 133.3333L255.001 126.6667z" stroke="none" fill="#FF6B97" fill-rule="nonzero" />
	<g transform="matrix(0.9999971 0 0 1 0 0)">
	</g>
    <path transform="matrix(0.9999971 0 0 1 0 0)"  d="M283.3343 125C 284.2548 125 285.001 125.7462 285.001 126.6666L285.001 126.6666L285.001 153.3333C 285.001 154.2538 284.2548 155 283.3343 155L283.3343 155L276.6677 155C 275.7472 155 275.001 154.2538 275.001 153.3333L275.001 153.3333L275.001 126.6666C 275.001 125.7462 275.7472 125 276.6677 125L276.6677 125L283.3343 125z" stroke="none" fill="#FF6B97" fill-rule="nonzero" />
	<g transform="matrix(0.9999971 0 0 1 0 0)">
	</g>
    <path transform="matrix(0.9999971 0 0 1 0 0)"  d="M285.001 153.3333C 285.001 154.2538 284.2548 155 283.3344 155L283.3344 155L256.6677 155C 255.7473 155 255.001 154.2538 255.001 153.3333L255.001 153.3333L255.001 146.6667C 255.001 145.7462 255.7473 145 256.6677 145L256.6677 145L283.3344 145C 284.2548 145 285.001 145.7462 285.001 146.6667L285.001 146.6667L285.001 153.3333z" stroke="none" fill="#FF6B97" fill-rule="nonzero" />
	<g transform="matrix(0.9999971 0 0 1 0 0)">
	</g>
    <path transform="matrix(0.9999971 0 0 1 0 0)"  d="M256.6677 165C 255.7473 165 255.001 164.2538 255.001 163.3333L255.001 163.3333L255.001 146.6666C 255.001 145.7462 255.7473 145 256.6677 145L256.6677 145L263.3344 145C 264.2548 145 265.001 145.7462 265.001 146.6666L265.001 146.6666L265.001 163.3333C 265.001 164.2538 264.2548 165 263.3344 165L263.3344 165L256.6677 165z" stroke="none" fill="#FF6B97" fill-rule="nonzero" />
	<g transform="matrix(0.9999971 0 0 1 0 0)">
	</g>
    <path transform="matrix(0.9999971 0 0 1 0 0)"  d="M256.6677 175C 255.7473 175 255.001 174.2538 255.001 173.3333L255.001 173.3333L255.001 171.6666C 255.001 170.7462 255.7473 170 256.6677 170L256.6677 170L263.3344 170C 264.2548 170 265.001 170.7462 265.001 171.6666L265.001 171.6666L265.001 173.3333C 265.001 174.2538 264.2548 175 263.3344 175L263.3344 175L256.6677 175z" stroke="none" fill="#FF6B97" fill-rule="nonzero" />
	<g transform="matrix(0.9999971 0 0 1 0 0)">
	</g>
    <path transform="matrix(0.9999971 0 0 1 0 0)"  d="M180.001 190C 180.001 184.4771 184.4782 180 190.001 180L190.001 180L230.001 180C 235.5239 180 240.001 184.4771 240.001 190L240.001 190L240.001 230C 240.001 235.5229 235.5239 240 230.001 240L230.001 240L190.001 240C 184.4782 240 180.001 235.5229 180.001 230L180.001 230L180.001 190z" stroke="none" fill="#3CA370" fill-rule="nonzero" />
	<g transform="matrix(0.9999971 0 0 1 0 0)">
	</g>
    <path transform="matrix(0.9999971 0 0 1 0 0)"  d="M220.001 200L240.001 200L240.001 300L220.001 300L220.001 200z" stroke="none" fill="#322947" fill-rule="nonzero" />
	<g transform="matrix(0.9999971 0 0 1 564.9993 300)">
	</g>
    <path transform="matrix(0.9999971 0 0 1 564.9993 300)"  d="M-325 -53.33332L-318.3333 -53.33332C -312.7933 -53.33332 -308.3333 -57.79332 -308.3333 -63.33333L-308.3333 -63.33333L-308.3333 -110" stroke="#322947" stroke-width="6.66666" fill="none" />
	<g transform="matrix(0.9999971 0 0 1 0 0)">
	</g>
    <path transform="matrix(0.9999971 0 0 1 0 0)"  d="M200.001 235C 200.001 232.2386 202.2396 230 205.001 230L205.001 230L225.001 230C 227.7625 230 230.001 232.2386 230.001 235L230.001 235L230.001 255C 230.001 257.7614 227.7625 260 225.001 260L225.001 260L205.001 260C 202.2396 260 200.001 257.7614 200.001 255L200.001 255L200.001 235z" stroke="none" fill="#3CA370" fill-rule="nonzero" />
	<g transform="matrix(0.9999971 0 0 1 0 0)">
	</g>
    <path transform="matrix(0.9999971 0 0 1 0 0)"  d="M230.001 196.6667C 230.001 192.9848 232.9858 190 236.6677 190L236.6677 190L263.3344 190C 267.0163 190 270.001 192.9848 270.001 196.6667L270.001 196.6667L270.001 223.3333C 270.001 227.0152 267.0163 230 263.3344 230L263.3344 230L236.6677 230C 232.9858 230 230.001 227.0152 230.001 223.3333L230.001 223.3333L230.001 196.6667z" stroke="none" fill="#3CA370" fill-rule="nonzero" />
	<g transform="matrix(0.9999971 0 0 1 564.9993 300)">
	</g>
    <path transform="matrix(0.9999971 0 0 1 564.9993 300)"  d="M-345 -83.33332L-351.6667 -83.33332C -357.2067 -83.33332 -361.6667 -87.79332 -361.6667 -93.33333L-361.6667 -93.33333L-361.6667 -110" stroke="#322947" stroke-width="6.66666" fill="none" />
	<g transform="matrix(0.9999971 0 0 1 0 0)">
	</g>
    <path transform="matrix(0.9999971 0 0 1 0 0)"  d="M220.001 295L240.001 295L240.001 300L220.001 300L220.001 295z" stroke="none" fill="#3CA370" fill-rule="nonzero" />
	<g transform="matrix(0.9999971 0 0 1 0 0)">
	</g>
    <path transform="matrix(0.9999971 0 0 1 0 0)"  d="M220.001 287.5C 220.001 286.1193 221.1203 285 222.501 285C 223.8817 285 225.001 286.1193 225.001 287.5L225.001 287.5L225.001 297.5C 225.001 298.8807 223.8817 300 222.501 300C 221.1203 300 220.001 298.8807 220.001 297.5L220.001 297.5L220.001 287.5z" stroke="none" fill="#3CA370" fill-rule="nonzero" />
	<g transform="matrix(0.9999971 0 0 1 0 0)">
	</g>
    <path transform="matrix(0.9999971 0 0 1 0 0)"  d="M235.001 294.5C 235.001 293.1193 233.8817 292 232.501 292C 231.1203 292 230.001 293.1193 230.001 294.5L230.001 294.5L230.001 297.5C 230.001 298.8807 231.1203 300 232.501 300C 233.8817 300 235.001 298.8807 235.001 297.5L235.001 297.5L235.001 294.5z" stroke="none" fill="#3CA370" fill-rule="nonzero" />
	<g transform="matrix(0.9999971 0 0 1 0 0)">
	</g>
    <path transform="matrix(0.9999971 0 0 1 0 0)"  d="M240.001 290.5C 240.001 289.1193 238.8817 288 237.501 288C 236.1203 288 235.001 289.1193 235.001 290.5L235.001 290.5L235.001 297.5C 235.001 298.8807 236.1203 300 237.501 300C 238.8817 300 240.001 298.8807 240.001 297.5L240.001 297.5L240.001 290.5z" stroke="none" fill="#3CA370" fill-rule="nonzero" />
	<g transform="matrix(0.9999971 0 0 1 0 0)">
	</g>
    <path transform="matrix(0.9999971 0 0 1 0 0)"  d="M225.001 293.5C 225.001 292.1193 226.1203 291 227.501 291C 228.8817 291 230.001 292.1193 230.001 293.5L230.001 293.5L230.001 297.5C 230.001 298.8807 228.8817 300 227.501 300C 226.1203 300 225.001 298.8807 225.001 297.5L225.001 297.5L225.001 293.5z" stroke="none" fill="#3CA370" fill-rule="nonzero" />
	<g transform="matrix(0.9999971 0 0 1 0 0)">
	</g>
    <path transform="matrix(0.9999971 0 0 1 0 0)"  d="M220.001 193.3333C 220.001 191.4924 221.4934 190 223.3344 190L223.3344 190L276.6676 190C 278.5085 190 280.001 191.4924 280.001 193.3333L280.001 193.3333L280.001 206.6667C 280.001 208.5076 278.5085 210 276.6676 210L276.6676 210L223.3344 210C 221.4934 210 220.001 208.5076 220.001 206.6667L220.001 206.6667L220.001 193.3333z" stroke="none" fill="#FF6B97" fill-rule="nonzero" />
	<g transform="matrix(0.9999971 0 0 1 0 0)">
	</g>
    <path transform="matrix(0.9999971 0 0 1 0 0)"  d="M276.6675 189.9999C 278.5084 189.9999 280.0009 191.4923 280.0009 193.3333L280.0009 193.3333L280.0009 246.6666C 280.0009 248.5076 278.5084 249.9999 276.6675 249.9999L276.6675 249.9999L263.3342 249.9999C 261.4933 249.9999 260.0009 248.5076 260.0009 246.6666L260.0009 246.6666L260.0009 193.3333C 260.0009 191.4923 261.4933 189.9999 263.3342 189.9999L263.3342 189.9999L276.6675 189.9999z" stroke="none" fill="#FF6B97" fill-rule="nonzero" />
	<g transform="matrix(0.9999971 0 0 1 0 0)">
	</g>
    <path transform="matrix(0.9999971 0 0 1 0 0)"  d="M280.001 246.6667C 280.001 248.5076 278.5085 250 276.6676 250L276.6676 250L223.3344 250C 221.4934 250 220.001 248.5076 220.001 246.6667L220.001 246.6667L220.001 233.3333C 220.001 231.4924 221.4934 230 223.3344 230L223.3344 230L276.6676 230C 278.5085 230 280.001 231.4924 280.001 233.3333L280.001 233.3333L280.001 246.6667z" stroke="none" fill="#FF6B97" fill-rule="nonzero" />
	<g transform="matrix(0.9999971 0 0 1 0 0)">
	</g>
    <path transform="matrix(0.9999971 0 0 1 0 0)"  d="M223.3344 269.9999C 221.4934 269.9999 220.001 268.5076 220.001 266.6666L220.001 266.6666L220.001 233.3333C 220.001 231.4923 221.4934 229.9999 223.3344 229.9999L223.3344 229.9999L236.6676 229.9999C 238.5085 229.9999 240.001 231.4923 240.001 233.3333L240.001 233.3333L240.001 266.6666C 240.001 268.5076 238.5085 269.9999 236.6676 269.9999L236.6676 269.9999L223.3344 269.9999z" stroke="none" fill="#FF6B97" fill-rule="nonzero" />
	<g transform="matrix(0.9999971 0 0 1 0 0)">
	</g>
    <path transform="matrix(0.9999971 0 0 1 0 0)"  d="M223.3344 289.9999C 221.4934 289.9999 220.001 288.5076 220.001 286.6666L220.001 286.6666L220.001 283.3333C 220.001 281.4923 221.4934 279.9999 223.3344 279.9999L223.3344 279.9999L236.6676 279.9999C 238.5085 279.9999 240.001 281.4923 240.001 283.3333L240.001 283.3333L240.001 286.6666C 240.001 288.5076 238.5085 289.9999 236.6676 289.9999L236.6676 289.9999L223.3344 289.9999z" stroke="none" fill="#FF6B97" fill-rule="nonzero" />
	<g transform="matrix(0.9999971 0 0 1 6.103498E-05 300)">
	</g>
    <path transform="matrix(0.9999971 0 0 1 6.103498E-05 300)"  d="M345 -28C 352.9015 -28 358 -22 358 -22L358 -22L358 -7C 358 -4.23 355.77 -2 353 -2L353 -2L337 -2C 334.23 -2 332 -4.23 332 -7L332 -7L332 -22C 332 -22 337.0985 -28 345 -28z" stroke="#B0305C" stroke-width="4" fill="#FFB570" fill-rule="nonzero" />
	<g transform="matrix(-0.4999985 0.8660254 -0.8660229 -0.4999999 487.1518 -29.6329)">
	</g>
    <path transform="matrix(-0.4999985 0.8660254 -0.8660229 -0.4999999 487.1518 -29.6329)"  d="M345 -41.70818L347.8867 -36.70818L350.7735 -31.70818L345 -31.70818L339.2265 -31.70818L342.1133 -36.70818L345 -41.70818z" stroke="none" fill="#B0305C" fill-rule="nonzero" />
	<g transform="matrix(0.9999971 0 0 1 0 0)">
	</g>
    <path transform="matrix(0.9999971 0 0 1 0 0)"  d="M302.0001 247C 302.0001 244.2386 304.2386 242 307.0001 242L307.0001 242L323.0001 242C 325.7615 242 328.0001 244.2386 328.0001 247L328.0001 247L328.0001 293C 328.0001 295.7614 325.7615 298 323.0001 298L323.0001 298L307.0001 298C 304.2386 298 302.0001 295.7614 302.0001 293L302.0001 293L302.0001 247z" stroke="#4DA6FF" stroke-width="4" fill="#4B5BAB" fill-rule="nonzero" />
	<g transform="matrix(0.9999971 0 0 1 0 0)">
	</g>
    <path transform="matrix(0.9999971 0 0 1 0 0)"  d="M310.0001 271.6667C 310.0001 270.7462 310.7462 270 311.6667 270L311.6667 270L318.3334 270C 319.2539 270 320.0001 270.7462 320.0001 271.6667L320.0001 271.6667L320.0001 288.3333C 320.0001 289.2538 319.2539 290 318.3334 290L318.3334 290L311.6667 290C 310.7462 290 310.0001 289.2538 310.0001 288.3333L310.0001 288.3333L310.0001 271.6667z" stroke="none" fill="#4DA6FF" fill-rule="nonzero" />
	<g transform="matrix(0.9999971 0 0 1 0 0)">
	</g>
    <path transform="matrix(0.9999971 0 0 1 0 0)"  d="M339.9998 167.5C 339.9998 166.1193 341.119 165 342.4998 165C 343.8805 165 344.9998 166.1193 344.9998 167.5L344.9998 167.5L344.9998 177.5C 344.9998 178.8807 343.8805 180 342.4998 180C 341.119 180 339.9998 178.8807 339.9998 177.5L339.9998 177.5L339.9998 167.5z" stroke="none" fill="#3CA370" fill-rule="nonzero" />
	<g transform="matrix(0.9999971 0 0 1 0 0)">
	</g>
    <path transform="matrix(0.9999971 0 0 1 0 0)"  d="M330.0023 170.4998C 330.0023 169.1191 328.8829 167.9998 327.5023 167.9998C 326.1215 167.9998 325.0023 169.1191 325.0023 170.4998L325.0023 170.4998L325.0023 177.4998C 325.0023 178.8806 326.1215 179.9998 327.5023 179.9998C 328.8829 179.9998 330.0023 178.8806 330.0023 177.4998L330.0023 177.4998L330.0023 170.4998z" stroke="none" fill="#3CA370" fill-rule="nonzero" />
	<g transform="matrix(0 -2 -1.999977 0 162.8876 1128.999)">
	</g>
    <path transform="matrix(0 -2 -1.999977 0 162.8876 1128.999)"  d="M487.4997 -78.63623L488.7497 -76.47117L489.9997 -74.30611L487.4997 -74.30611L484.9997 -74.30611L486.2497 -76.47117L487.4997 -78.63623z" stroke="none" fill="#B0305C" fill-rule="nonzero" />
	<g transform="matrix(3.779514 0 0 3.779525 -49.99966 389.445)">
	</g>
    <path transform="matrix(3.779514 0 0 3.779525 -49.99966 389.445)"  d="M101.0267 -57.13553L102.7907 -57.13553C 104.2565 -57.13553 105.4366 -58.31557 105.4366 -59.78136L105.4366 -59.78136L105.4366 -61.76569" stroke="#B0305C" stroke-width="0.793751" fill="none" />
	<g transform="matrix(0 -2 -1.999977 0 199.8878 1118.999)">
	</g>
    <path transform="matrix(0 -2 -1.999977 0 199.8878 1118.999)"  d="M487.4997 -78.63623L488.7497 -76.47117L489.9997 -74.30611L487.4997 -74.30611L484.9997 -74.30611L486.2497 -76.47117L487.4997 -78.63623z" stroke="none" fill="#B0305C" fill-rule="nonzero" />
	<g transform="matrix(0 -2 1.999977 0 497.1095 1118.999)">
	</g>
    <path transform="matrix(0 -2 1.999977 0 497.1095 1118.999)"  d="M487.4997 -78.63623L488.7497 -76.47117L489.9997 -74.30611L487.4997 -74.30611L484.9997 -74.30611L486.2497 -76.47117L487.4997 -78.63623z" stroke="none" fill="#B0305C" fill-rule="nonzero" />
	<g transform="matrix(0.9999886 0 0 1 -178.488 229.1028)">
	</g>
    <path transform="matrix(0.9999886 0 0 1 -178.488 229.1028)"  d="M505.208 -98.15926L507.708 -93.82913L510.208 -89.499L505.208 -89.499L500.208 -89.499L502.708 -93.82912L505.208 -98.15926z" stroke="none" fill="#B0305C" fill-rule="nonzero" />
	<g transform="matrix(0 -2 1.999977 0 460.1093 1128.999)">
	</g>
    <path transform="matrix(0 -2 1.999977 0 460.1093 1128.999)"  d="M487.4997 -78.63623L488.7497 -76.47117L489.9997 -74.30611L487.4997 -74.30611L484.9997 -74.30611L486.2497 -76.47117L487.4997 -78.63623z" stroke="none" fill="#B0305C" fill-rule="nonzero" />
	<g transform="matrix(3.779514 0 0 3.779525 -49.99966 389.445)">
	</g>
    <path transform="matrix(3.779514 0 0 3.779525 -49.99966 389.445)"  d="M95.64682 -62.29486L95.64682 -63.45797C 95.64682 -64.92376 96.82687 -66.10386 98.29266 -66.10386L98.29266 -66.10386L98.34966 -66.10386" stroke="#3CA370" stroke-width="0.793751" fill="none" />
	<g transform="matrix(3.779514 0 0 3.779525 -49.99966 389.445)">
	</g>
    <path transform="matrix(3.779514 0 0 3.779525 -49.99966 389.445)"  d="M101.0269 -70.89382L102.7907 -70.89382C 104.2565 -70.89382 105.4366 -69.71378 105.4366 -68.24799L105.4366 -68.24799L105.4366 -61.7657" stroke="#3CA370" stroke-width="0.793751" fill="none" />
	<g transform="matrix(3.779514 0 0 3.779525 -49.99966 389.445)">
	</g>
    <path transform="matrix(3.779514 0 0 3.779525 -49.99966 389.445)"  d="M98.34967 -66.10378L100.1135 -66.10405C 101.5793 -66.10427 102.7594 -64.92376 102.7594 -63.45797L102.7594 -63.45797L102.7594 -62.26769" stroke="#B0305C" stroke-width="0.793751" fill="none" />
	<g transform="matrix(3.779514 0 0 3.779525 -49.99966 389.445)">
	</g>
    <path transform="matrix(3.779514 0 0 3.779525 -49.99966 389.445)"  d="M101.4238 -71.2907L101.4238 -69.52684C 101.4238 -68.06104 102.6038 -66.881 104.0696 -66.881L104.0696 -66.881L104.1266 -66.881" stroke="#3CA370" stroke-width="0.793751" fill="none" />
	<g transform="matrix(-0.9999887 0 0 1 -179.9953 226.6204)">
	</g>
    <path transform="matrix(-0.9999887 0 0 1 -179.9953 226.6204)"  d="M-511.0037 -84.52445L-509.7537 -82.35939L-508.5037 -80.19433L-511.0037 -80.19433L-513.5037 -80.19433L-512.2537 -82.35939L-511.0037 -84.52445z" stroke="none" fill="#B0305C" fill-rule="nonzero" />
	<g transform="matrix(3.779514 0 0 3.779525 -49.99966 389.445)">
	</g>
    <path transform="matrix(3.779514 0 0 3.779525 -49.99966 389.445)"  d="M103.1562 -62.5322L101.3924 -62.5322C 99.92658 -62.5322 98.74654 -63.71225 98.74654 -65.17804L98.74654 -65.17804L98.74654 -65.23505" stroke="#B0305C" stroke-width="0.793751" fill="none" />
	<g transform="matrix(-0.9999887 0 0 -1 -179.9953 226.6204)">
	</g>
    <path transform="matrix(-0.9999887 0 0 -1 -179.9953 226.6204)"  d="M-511.0037 75.8642L-509.7537 78.02927L-508.5037 80.19433L-511.0037 80.19433L-513.5037 80.19433L-512.2537 78.02927L-511.0037 75.8642z" stroke="none" fill="#B0305C" fill-rule="nonzero" />
	<g transform="matrix(-0.9999887 0 0 1 -179.9953 229.1037)">
	</g>
    <path transform="matrix(-0.9999887 0 0 1 -179.9953 229.1037)"  d="M-519.7308 -104.8772L-518.4808 -102.7122L-517.2308 -100.5471L-519.7308 -100.5471L-522.2308 -100.5471L-520.9808 -102.7122L-519.7308 -104.8772z" stroke="none" fill="#B0305C" fill-rule="nonzero" />
	<g transform="matrix(-0.9999887 0 0 -1 -179.9953 229.1037)">
	</g>
    <path transform="matrix(-0.9999887 0 0 -1 -179.9953 229.1037)"  d="M-519.7308 96.21697L-518.4808 98.38203L-517.2308 100.5471L-519.7308 100.5471L-522.2308 100.5471L-520.9808 98.38203L-519.7308 96.21697z" stroke="none" fill="#B0305C" fill-rule="nonzero" />
	<g transform="matrix(0.9999971 0 0 1 0 0)">
	</g>
    <path transform="matrix(0.9999971 0 0 1 0 0)"  d="M350.0004 162.5C 350.0004 161.1193 351.1197 160 352.5004 160C 353.8811 160 355.0004 161.1193 355.0004 162.5L355.0004 162.5L355.0004 177.5C 355.0004 178.8808 353.8811 180 352.5004 180C 351.1197 180 350.0004 178.8808 350.0004 177.5L350.0004 177.5L350.0004 162.5z" stroke="none" fill="#3CA370" fill-rule="nonzero" />
	<g transform="matrix(0.9999971 0 0 1 0 0)">
	</g>
    <path transform="matrix(0.9999971 0 0 1 0 0)"  d="M350.0004 167.5C 350.0004 166.1193 348.8811 165 347.5004 165C 346.1197 165 345.0004 166.1193 345.0004 167.5L345.0004 167.5L345.0004 177.5C 345.0004 178.8808 346.1197 180 347.5004 180C 348.8811 180 350.0004 178.8808 350.0004 177.5L350.0004 177.5L350.0004 167.5z" stroke="none" fill="#3CA370" fill-rule="nonzero" />
	<g transform="matrix(0.9999971 0 0 1 0 0)">
	</g>
    <path transform="matrix(0.9999971 0 0 1 0 0)"  d="M339.9998 170.5C 339.9998 169.1193 338.8805 168 337.4998 168C 336.1191 168 334.9998 169.1193 334.9998 170.5L334.9998 170.5L334.9998 177.5C 334.9998 178.8807 336.1191 180 337.4998 180C 338.8805 180 339.9998 178.8807 339.9998 177.5L339.9998 177.5L339.9998 170.5z" stroke="none" fill="#3CA370" fill-rule="nonzero" />
	<g transform="matrix(0.9999971 0 0 1 0 0)">
	</g>
    <path transform="matrix(0.9999971 0 0 1 0 0)"  d="M310.001 170.5C 310.001 169.1193 311.1202 168 312.501 168C 313.8817 168 315.001 169.1193 315.001 170.5L315.001 170.5L315.001 177.5C 315.001 178.8807 313.8817 180 312.501 180C 311.1202 180 310.001 178.8807 310.001 177.5L310.001 177.5L310.001 170.5z" stroke="none" fill="#3CA370" fill-rule="nonzero" />
	<g transform="matrix(0.9999971 0 0 1 0 0)">
	</g>
    <path transform="matrix(0.9999971 0 0 1 0 0)"  d="M320.0016 167.4998C 320.0016 166.1191 318.8823 164.9998 317.5016 164.9998C 316.1209 164.9998 315.0016 166.1191 315.0016 167.4998L315.0016 167.4998L315.0016 177.4998C 315.0016 178.8806 316.1209 179.9998 317.5016 179.9998C 318.8823 179.9998 320.0016 178.8806 320.0016 177.4998L320.0016 177.4998L320.0016 167.4998z" stroke="none" fill="#3CA370" fill-rule="nonzero" />
	<g transform="matrix(0.9999971 0 0 1 0 0)">
	</g>
    <path transform="matrix(0.9999971 0 0 1 0 0)"  d="M310.001 167.5C 310.001 166.1193 308.8817 165 307.501 165C 306.1203 165 305.001 166.1193 305.001 167.5L305.001 167.5L305.001 177.5C 305.001 178.8807 306.1203 180 307.501 180C 308.8817 180 310.001 178.8807 310.001 177.5L310.001 177.5L310.001 167.5z" stroke="none" fill="#3CA370" fill-rule="nonzero" />
	<g transform="matrix(3.779514 0 0 3.779525 -49.99966 389.445)">
	</g>
    <path transform="matrix(3.779514 0 0 3.779525 -49.99966 389.445)"  d="M101.0267 -57.13553L98.29266 -57.13562C 96.82687 -57.13566 95.64682 -58.31566 95.64682 -59.78145L95.64682 -59.78145L95.64682 -62.29486" stroke="#B0305C" stroke-width="0.793751" fill="none" />
	<g transform="matrix(0.9999971 0 0 1 0 0)">
	</g>
    <path transform="matrix(0.9999971 0 0 1 0 0)"  d="M320.0016 162.5001C 320.0016 161.1194 321.1209 160.0001 322.5016 160.0001C 323.8823 160.0001 325.0016 161.1194 325.0016 162.5001L325.0016 162.5001L325.0016 177.5001C 325.0016 178.8808 323.8823 180.0001 322.5016 180.0001C 321.1209 180.0001 320.0016 178.8808 320.0016 177.5001L320.0016 177.5001L320.0016 162.5001z" stroke="none" fill="#3CA370" fill-rule="nonzero" />
	<g transform="matrix(0.9999971 0 0 1 0 0)">
	</g>
    <path transform="matrix(0.9999971 0 0 1 0 0)"  d="M300.001 162.5C 300.001 161.1193 301.1203 160 302.501 160C 303.8817 160 305.001 161.1193 305.001 162.5L305.001 162.5L305.001 177.5C 305.001 178.8807 303.8817 180 302.501 180C 301.1203 180 300.001 178.8807 300.001 177.5L300.001 177.5L300.001 162.5z" stroke="none" fill="#3CA370" fill-rule="nonzero" />
	<g transform="matrix(0.9999971 0 0 1 0 0)">
	</g>
    <path transform="matrix(0.9999971 0 0 1 0 0)"  d="M360.001 164.5C 360.001 163.1193 358.8817 162 357.501 162C 356.1203 162 355.001 163.1193 355.001 164.5L355.001 164.5L355.001 177.5C 355.001 178.8807 356.1203 180 357.501 180C 358.8817 180 360.001 178.8807 360.001 177.5L360.001 177.5L360.001 164.5z" stroke="none" fill="#3CA370" fill-rule="nonzero" />
	<g transform="matrix(0.9999971 0 0 1 0 0)">
	</g>
    <path transform="matrix(0.9999971 0 0 1 0 0)"  d="M330.0023 162.5C 330.0023 161.1193 331.1215 160 332.5023 160C 333.8829 160 335.0022 161.1193 335.0022 162.5L335.0022 162.5L335.0022 177.5C 335.0022 178.8807 333.8829 180 332.5023 180C 331.1215 180 330.0023 178.8807 330.0023 177.5L330.0023 177.5L330.0023 162.5z" stroke="none" fill="#3CA370" fill-rule="nonzero" />
	<g transform="matrix(0.9999971 0 0 1 0 0)">
	</g>
    <path transform="matrix(0.9999971 0 0 1 0 0)"  d="M300.001 175L360.001 175L360.001 180L300.001 180L300.001 175z" stroke="none" fill="#3CA370" fill-rule="nonzero" />
	<g transform="matrix(0.9999971 0 0 1 0 0)">
	</g>
    <path transform="matrix(0.9999971 0 0 1 0 0)"  d="M315.001 126.6666C 315.001 125.7462 315.7472 125 316.6677 125L316.6677 125L343.3343 125C 344.2548 125 345.001 125.7462 345.001 126.6666L345.001 126.6666L345.001 133.3333C 345.001 134.2538 344.2548 135 343.3343 135L343.3343 135L316.6677 135C 315.7472 135 315.001 134.2538 315.001 133.3333L315.001 133.3333L315.001 126.6666z" stroke="none" fill="#FF6B97" fill-rule="nonzero" />
	<g transform="matrix(0.9999971 0 0 1 0 0)">
	</g>
    <path transform="matrix(0.9999971 0 0 1 0 0)"  d="M343.3342 124.9999C 344.2547 124.9999 345.0009 125.7461 345.0009 126.6666L345.0009 126.6666L345.0009 153.3333C 345.0009 154.2538 344.2547 154.9999 343.3342 154.9999L343.3342 154.9999L336.6676 154.9999C 335.7471 154.9999 335.0009 154.2538 335.0009 153.3333L335.0009 153.3333L335.0009 126.6666C 335.0009 125.7461 335.7471 124.9999 336.6676 124.9999L336.6676 124.9999L343.3342 124.9999z" stroke="none" fill="#FF6B97" fill-rule="nonzero" />
	<g transform="matrix(0.9999971 0 0 1 0 0)">
	</g>
    <path transform="matrix(0.9999971 0 0 1 0 0)"  d="M345.001 153.3333C 345.001 154.2538 344.2548 155 343.3343 155L343.3343 155L316.6677 155C 315.7472 155 315.001 154.2538 315.001 153.3333L315.001 153.3333L315.001 146.6666C 315.001 145.7462 315.7472 145 316.6677 145L316.6677 145L343.3343 145C 344.2548 145 345.001 145.7462 345.001 146.6666L345.001 146.6666L345.001 153.3333z" stroke="none" fill="#FF6B97" fill-rule="nonzero" />
	<g transform="matrix(0.9999971 0 0 1 0 0)">
	</g>
    <path transform="matrix(0.9999971 0 0 1 0 0)"  d="M316.6677 164.9999C 315.7472 164.9999 315.001 164.2538 315.001 163.3333L315.001 163.3333L315.001 146.6666C 315.001 145.7461 315.7472 144.9999 316.6677 144.9999L316.6677 144.9999L323.3343 144.9999C 324.2548 144.9999 325.001 145.7461 325.001 146.6666L325.001 146.6666L325.001 163.3333C 325.001 164.2538 324.2548 164.9999 323.3343 164.9999L323.3343 164.9999L316.6677 164.9999z" stroke="none" fill="#FF6B97" fill-rule="nonzero" />
	<g transform="matrix(0.9999971 0 0 1 0 0)">
	</g>
    <path transform="matrix(0.9999971 0 0 1 0 0)"  d="M316.6677 174.9999C 315.7472 174.9999 315.001 174.2538 315.001 173.3333L315.001 173.3333L315.001 171.6666C 315.001 170.7461 315.7472 169.9999 316.6677 169.9999L316.6677 169.9999L323.3343 169.9999C 324.2548 169.9999 325.001 170.7461 325.001 171.6666L325.001 171.6666L325.001 173.3333C 325.001 174.2538 324.2548 174.9999 323.3343 174.9999L323.3343 174.9999L316.6677 174.9999z" stroke="none" fill="#FF6B97" fill-rule="nonzero" />
	<g transform="matrix(0.9999971 0 0 1 0 0)">
	</g>
    <path transform="matrix(0.9999971 0 0 1 0 0)"  d="M300.001 215C 300.001 209.4771 304.4782 205 310.001 205L310.001 205L350.001 205C 355.5238 205 360.001 209.4771 360.001 215L360.001 215L360.001 225C 360.001 230.5229 355.5238 235 350.001 235L350.001 235L310.001 235C 304.4782 235 300.001 230.5229 300.001 225L300.001 225L300.001 215z" stroke="none" fill="#B0305C" fill-rule="nonzero" />
	<g transform="matrix(0.9999971 0 0 1 0 0)">
	</g>
    <path transform="matrix(0.9999971 0 0 1 0 0)"  d="M302.501 220C 302.501 214.4771 306.6051 210 311.6677 210L311.6677 210L348.3343 210C 353.3969 210 357.501 214.4771 357.501 220L357.501 220L357.501 230C 357.501 235.5229 353.3969 240 348.3343 240L348.3343 240L311.6677 240C 306.6051 240 302.501 235.5229 302.501 230L302.501 230L302.501 220z" stroke="none" fill="#FFB570" fill-rule="nonzero" />
	<g transform="matrix(0.9999971 0 0 1 0 0)">
	</g>
    <path transform="matrix(0.9999971 0 0 1 0 0)"  d="M342.501 205L345.001 205L345.001 239.9995L342.501 239.9995L342.501 205z" stroke="none" fill="#B0305C" fill-rule="nonzero" />
	<g transform="matrix(0.9999971 0 0 1 0 0)">
	</g>
    <path transform="matrix(0.9999971 0 0 1 0 0)"  d="M315.001 205L317.501 205L317.501 239.9995L315.001 239.9995L315.001 205z" stroke="none" fill="#B0305C" fill-rule="nonzero" />
	<g transform="matrix(0.9999971 0 0 1 -299.9981 299.9995)">
	</g>
    <path transform="matrix(0.9999971 0 0 1 -299.9981 299.9995)"  d="M657.5 -86.61328L657.5 -60L660 -60L660 -70L660 -80C 660 -82.5435 659.0531 -84.85218 657.5 -86.61328z" stroke="none" fill="#B0305C" fill-rule="nonzero" />
	<g transform="matrix(0.9999971 0 0 1 -299.9981 299.9995)">
	</g>
    <path transform="matrix(0.9999971 0 0 1 -299.9981 299.9995)"  d="M602.5 -86.61328C 600.9469 -84.85218 600 -82.5435 600 -80L600 -80L600 -70L600 -60L602.5 -60L602.5 -86.61328z" stroke="none" fill="#B0305C" fill-rule="nonzero" />
	<g transform="matrix(0.9999971 0 0 1 0 0)">
	</g>
    <path transform="matrix(0.9999971 0 0 1 0 0)"  d="M300.001 239.9995L300.001 237.4995L360.001 237.4995L360.001 239.9995L300.001 239.9995z" stroke="none" fill="#B0305C" fill-rule="nonzero" />
	<g transform="matrix(0.9999971 0 0 1 0 0)">
	</g>
    <path transform="matrix(0.9999971 0 0 1 0 0)"  d="M322.501 208.75C 322.501 207.3693 323.6203 206.25 325.001 206.25L325.001 206.25L335.001 206.25C 336.3817 206.25 337.501 207.3693 337.501 208.75L337.501 208.75L337.501 218.75C 337.501 220.1307 336.3817 221.25 335.001 221.25L335.001 221.25L325.001 221.25C 323.6203 221.25 322.501 220.1307 322.501 218.75L322.501 218.75L322.501 208.75z" stroke="none" fill="#B0305C" fill-rule="nonzero" />
	<g transform="matrix(0.9999971 0 0 1 0 0)">
	</g>
    <path transform="matrix(0.9999971 0 0 1 0 0)"  d="M327.501 219.5828C 327.501 219.1226 327.8741 218.7495 328.3343 218.7495L328.3343 218.7495L331.6677 218.7495C 332.1279 218.7495 332.501 219.1226 332.501 219.5828L332.501 219.5828L332.501 222.9162C 332.501 223.3764 332.1279 223.7495 331.6677 223.7495L331.6677 223.7495L328.3343 223.7495C 327.8741 223.7495 327.501 223.3764 327.501 222.9162L327.501 222.9162L327.501 219.5828z" stroke="none" fill="#B0305C" fill-rule="nonzero" />
	<g transform="matrix(0.9999971 0 0 1 0 0)">
	</g>
    <path transform="matrix(0.9999971 0 0 1 0 0)"  d="M339.9998 227.4995C 339.9998 226.1188 341.119 224.9995 342.4998 224.9995C 343.8805 224.9995 344.9998 226.1188 344.9998 227.4995L344.9998 227.4995L344.9998 237.4995C 344.9998 238.8802 343.8805 239.9995 342.4998 239.9995C 341.119 239.9995 339.9998 238.8802 339.9998 237.4995L339.9998 237.4995L339.9998 227.4995z" stroke="none" fill="#3CA370" fill-rule="nonzero" />
	<g transform="matrix(0.9999971 0 0 1 0 0)">
	</g>
    <path transform="matrix(0.9999971 0 0 1 0 0)"  d="M350.0004 227.4996C 350.0004 226.1189 348.8811 224.9996 347.5004 224.9996C 346.1197 224.9996 345.0004 226.1189 345.0004 227.4996L345.0004 227.4996L345.0004 237.4996C 345.0004 238.8803 346.1197 239.9996 347.5004 239.9996C 348.8811 239.9996 350.0004 238.8803 350.0004 237.4996L350.0004 237.4996L350.0004 227.4996z" stroke="none" fill="#3CA370" fill-rule="nonzero" />
	<g transform="matrix(0.9999971 0 0 1 0 0)">
	</g>
    <path transform="matrix(0.9999971 0 0 1 0 0)"  d="M360.001 232.0828C 360.001 230.9323 358.8817 229.9995 357.501 229.9995C 356.1203 229.9995 355.001 230.9323 355.001 232.0828L355.001 232.0828L355.001 237.9162C 355.001 239.0668 356.1203 239.9995 357.501 239.9995C 358.8817 239.9995 360.001 239.0668 360.001 237.9162L360.001 237.9162L360.001 232.0828z" stroke="none" fill="#3CA370" fill-rule="nonzero" />
	<g transform="matrix(0.9999971 0 0 1 0 0)">
	</g>
    <path transform="matrix(0.9999971 0 0 1 0 0)"  d="M320.0016 227.4994C 320.0016 226.1187 318.8824 224.9994 317.5016 224.9994C 316.1209 224.9994 315.0016 226.1187 315.0016 227.4994L315.0016 227.4994L315.0016 237.4994C 315.0016 238.8801 316.1209 239.9994 317.5016 239.9994C 318.8824 239.9994 320.0016 238.8801 320.0016 237.4994L320.0016 237.4994L320.0016 227.4994z" stroke="none" fill="#3CA370" fill-rule="nonzero" />
	<g transform="matrix(0.9999971 0 0 1 0 0)">
	</g>
    <path transform="matrix(0.9999971 0 0 1 0 0)"  d="M325 224.4995C 325 223.1188 323.8808 221.9995 322.5 221.9995C 321.1193 221.9995 320 223.1188 320 224.4995L320 224.4995L320 237.4995C 320 238.8802 321.1193 239.9995 322.5 239.9995C 323.8808 239.9995 325 238.8802 325 237.4995L325 237.4995L325 224.4995z" stroke="none" fill="#3CA370" fill-rule="nonzero" />
	<g transform="matrix(0.9999971 0 0 1 0 0)">
	</g>
    <path transform="matrix(0.9999971 0 0 1 0 0)"  d="M300.001 234.9995L360.001 234.9995L360.001 239.9995L300.001 239.9995L300.001 234.9995z" stroke="none" fill="#3CA370" fill-rule="nonzero" />
	<g transform="matrix(0.9999971 0 0 1 0 0)">
	</g>
    <path transform="matrix(0.9999971 0 0 1 0 0)"  d="M334.9998 230.4995C 334.9998 229.1188 336.119 227.9995 337.4998 227.9995C 338.8805 227.9995 339.9998 229.1188 339.9998 230.4995L339.9998 230.4995L339.9998 237.4995C 339.9998 238.8802 338.8805 239.9995 337.4998 239.9995C 336.119 239.9995 334.9998 238.8802 334.9998 237.4995L334.9998 237.4995L334.9998 230.4995z" stroke="none" fill="#3CA370" fill-rule="nonzero" />
	<g transform="matrix(0.9999971 0 0 1 0 0)">
	</g>
    <path transform="matrix(0.9999971 0 0 1 0 0)"  d="M300.001 230.4995C 300.001 229.1188 301.1203 227.9995 302.501 227.9995C 303.8817 227.9995 305.001 229.1188 305.001 230.4995L305.001 230.4995L305.001 237.4995C 305.001 238.8802 303.8817 239.9995 302.501 239.9995C 301.1203 239.9995 300.001 238.8802 300.001 237.4995L300.001 237.4995L300.001 230.4995z" stroke="none" fill="#3CA370" fill-rule="nonzero" />
	<g transform="matrix(0.9999971 0 0 1 0 0)">
	</g>
    <path transform="matrix(0.9999971 0 0 1 0 0)"  d="M335 227.4996C 335 226.1189 333.8808 224.9996 332.5 224.9996C 331.1193 224.9996 330 226.1189 330 227.4996L330 227.4996L330 237.4996C 330 238.8803 331.1193 239.9996 332.5 239.9996C 333.8808 239.9996 335 238.8803 335 237.4996L335 237.4996L335 227.4996z" stroke="none" fill="#3CA370" fill-rule="nonzero" />
	<g transform="matrix(0.9999971 0 0 1 0 0)">
	</g>
    <path transform="matrix(0.9999971 0 0 1 0 0)"  d="M315.001 230.4995C 315.001 229.1188 313.8817 227.9995 312.501 227.9995C 311.1203 227.9995 310.001 229.1188 310.001 230.4995L310.001 230.4995L310.001 237.4995C 310.001 238.8802 311.1203 239.9995 312.501 239.9995C 313.8817 239.9995 315.001 238.8802 315.001 237.4995L315.001 237.4995L315.001 230.4995z" stroke="none" fill="#3CA370" fill-rule="nonzero" />
	<g transform="matrix(0.9999971 0 0 1 0 0)">
	</g>
    <path transform="matrix(0.9999971 0 0 1 0 0)"  d="M325.001 232.0828C 325.001 230.9323 326.1203 229.9995 327.501 229.9995C 328.8817 229.9995 330.001 230.9323 330.001 232.0828L330.001 232.0828L330.001 237.9162C 330.001 239.0668 328.8817 239.9995 327.501 239.9995C 326.1203 239.9995 325.001 239.0668 325.001 237.9162L325.001 237.9162L325.001 232.0828z" stroke="none" fill="#3CA370" fill-rule="nonzero" />
	<g transform="matrix(0.9999971 0 0 1 0 0)">
	</g>
    <path transform="matrix(0.9999971 0 0 1 0 0)"  d="M350 230.4995C 350 229.1188 351.1193 227.9995 352.5 227.9995C 353.8808 227.9995 355 229.1188 355 230.4995L355 230.4995L355 237.4995C 355 238.8802 353.8808 239.9995 352.5 239.9995C 351.1193 239.9995 350 238.8802 350 237.4995L350 237.4995L350 230.4995z" stroke="none" fill="#3CA370" fill-rule="nonzero" />
	<g transform="matrix(0.9999971 0 0 1 0 0)">
	</g>
    <path transform="matrix(0.9999971 0 0 1 0 0)"  d="M310.002 227.4994C 310.002 226.1187 308.8827 224.9994 307.502 224.9994C 306.1212 224.9994 305.002 226.1187 305.002 227.4994L305.002 227.4994L305.002 237.4994C 305.002 238.8801 306.1212 239.9994 307.502 239.9994C 308.8827 239.9994 310.002 238.8801 310.002 237.4994L310.002 237.4994L310.002 227.4994z" stroke="none" fill="#3CA370" fill-rule="nonzero" />
	<g transform="matrix(0.9999971 0 0 1 0 0)">
	</g>
    <path transform="matrix(0.9999971 0 0 1 0 0)"  d="M180 130L240 130L240 150L180 150L180 130z" stroke="none" fill="#3CA370" fill-rule="nonzero" />
	<g transform="matrix(0.9999971 0 0 1 0 0)">
	</g>
    <path transform="matrix(0.9999971 0 0 1 0 0)"  d="M180.0009 149.995L240.0009 149.995L240.0009 179.995L180.0009 179.995L180.0009 149.995z" stroke="none" fill="#322947" fill-rule="nonzero" />
	<g transform="matrix(0.9999971 0 0 1 0 0)">
	</g>
    <path transform="matrix(0.9999971 0 0 1 0 0)"  d="M195.001 126.6667C 195.001 125.7462 195.7472 125 196.6677 125L196.6677 125L223.3343 125C 224.2548 125 225.001 125.7462 225.001 126.6667L225.001 126.6667L225.001 133.3333C 225.001 134.2538 224.2548 135 223.3343 135L223.3343 135L196.6677 135C 195.7472 135 195.001 134.2538 195.001 133.3333L195.001 133.3333L195.001 126.6667z" stroke="none" fill="#FF6B97" fill-rule="nonzero" />
	<g transform="matrix(0.9999971 0 0 1 0 0)">
	</g>
    <path transform="matrix(0.9999971 0 0 1 0 0)"  d="M223.3343 125C 224.2547 125 225.0009 125.7462 225.0009 126.6666L225.0009 126.6666L225.0009 153.3333C 225.0009 154.2538 224.2547 155 223.3343 155L223.3343 155L216.6676 155C 215.7472 155 215.0009 154.2538 215.0009 153.3333L215.0009 153.3333L215.0009 126.6666C 215.0009 125.7462 215.7472 125 216.6676 125L216.6676 125L223.3343 125z" stroke="none" fill="#FF6B97" fill-rule="nonzero" />
	<g transform="matrix(0.9999971 0 0 1 0 0)">
	</g>
    <path transform="matrix(0.9999971 0 0 1 0 0)"  d="M225.001 153.3333C 225.001 154.2538 224.2548 155 223.3343 155L223.3343 155L196.6677 155C 195.7472 155 195.001 154.2538 195.001 153.3333L195.001 153.3333L195.001 146.6667C 195.001 145.7462 195.7472 145 196.6677 145L196.6677 145L223.3343 145C 224.2548 145 225.001 145.7462 225.001 146.6667L225.001 146.6667L225.001 153.3333z" stroke="none" fill="#FF6B97" fill-rule="nonzero" />
	<g transform="matrix(0.9999971 0 0 1 0 0)">
	</g>
    <path transform="matrix(0.9999971 0 0 1 0 0)"  d="M196.6677 165C 195.7472 165 195.001 164.2538 195.001 163.3333L195.001 163.3333L195.001 146.6666C 195.001 145.7462 195.7472 145 196.6677 145L196.6677 145L203.3343 145C 204.2548 145 205.001 145.7462 205.001 146.6666L205.001 146.6666L205.001 163.3333C 205.001 164.2538 204.2548 165 203.3343 165L203.3343 165L196.6677 165z" stroke="none" fill="#FF6B97" fill-rule="nonzero" />
	<g transform="matrix(0.9999971 0 0 1 0 0)">
	</g>
    <path transform="matrix(0.9999971 0 0 1 0 0)"  d="M196.6677 175C 195.7472 175 195.001 174.2538 195.001 173.3333L195.001 173.3333L195.001 171.6666C 195.001 170.7462 195.7472 170 196.6677 170L196.6677 170L203.3343 170C 204.2548 170 205.001 170.7462 205.001 171.6666L205.001 171.6666L205.001 173.3333C 205.001 174.2538 204.2548 175 203.3343 175L203.3343 175L196.6677 175z" stroke="none" fill="#FF6B97" fill-rule="nonzero" />
</g>
</svg>